<?xml version="1.0" encoding="utf-8"?>
<!-- Generator: Adobe Illustrator 16.0.0, SVG Export Plug-In . SVG Version: 6.00 Build 0)  -->
<!DOCTYPE svg PUBLIC "-//W3C//DTD SVG 1.0//EN" "http://www.w3.org/TR/2001/REC-SVG-20010904/DTD/svg10.dtd">
<svg version="1.0" id="Capa_1" xmlns="http://www.w3.org/2000/svg" xmlns:xlink="http://www.w3.org/1999/xlink" x="0px" y="0px"
	 width="512px" height="512px" viewBox="0 0 512 512" enable-background="new 0 0 512 512" xml:space="preserve">
<ellipse fill="#39B039" cx="290.163" cy="125.745" rx="62.19" ry="65.261"/>
<ellipse fill="#39B039" cx="395.568" cy="349.922" rx="96.321" ry="102.322"/>
<rect x="18.26" y="236.266" fill="#39B039" width="147.955" height="88.27"/>
<g>
	<path d="M418.211,340.212h-17.007V323.18c0-5.522-4.478-10-10-10c-5.523,0-10,4.478-10,10v17.032h-17.007c-5.523,0-10,4.478-10,10
		s4.477,10,10,10h17.007v17.032c0,5.523,4.477,10,10,10c5.522,0,10-4.477,10-10v-17.032h17.007c5.523,0,10-4.478,10-10
		S423.734,340.212,418.211,340.212z"/>
	<path d="M409.615,230.716c-11.206-24.085-35.67-39.915-62.521-39.915h-5.726c18.477-15.596,30.232-38.928,30.232-64.956
		c0-46.845-38.079-84.956-84.887-84.956c-46.807,0-84.888,38.111-84.888,84.956c0,26.028,11.756,49.359,30.233,64.956h-5.726
		c-23.168,0-43.703,11.499-56.206,29.094c-5.141-1.557-10.472-2.371-15.92-2.427c12.944-12.695,20.986-30.378,20.986-49.906
		c0-38.544-31.333-69.903-69.847-69.903c-38.514,0-69.848,31.358-69.848,69.903c0,19.528,8.043,37.211,20.987,49.906
		C25.282,217.795,0,243.297,0,274.6v58.971c0,5.523,4.477,10,10,10h260.588c-0.12,2.199-0.181,4.414-0.181,6.643
		c0,66.664,54.188,120.898,120.796,120.898c66.606,0,120.796-54.235,120.796-120.898C512,289.813,467.515,239.615,409.615,230.716
		L409.615,230.716z M221.826,125.845c0-35.817,29.108-64.956,64.887-64.956c35.779,0,64.887,29.139,64.887,64.956
		c0,35.816-29.107,64.956-64.887,64.956C250.934,190.801,221.826,161.662,221.826,125.845z M55.498,167.562
		c0-27.517,22.362-49.903,49.848-49.903c27.486,0,49.847,22.386,49.847,49.903c0,27.516-22.361,49.902-49.847,49.902
		C77.86,217.464,55.498,195.078,55.498,167.562L55.498,167.562z M20,274.6c0-20.477,16.639-37.136,37.091-37.136H153.6
		c2.467,0,4.895,0.238,7.271,0.71c-2.246,6.799-3.462,14.063-3.462,21.605v63.791H20V274.6z M177.408,323.57v-63.791
		c0-27.006,21.948-48.979,48.925-48.979h120.761c15.17,0,29.269,7.12,38.401,18.647c-54.927,2.57-100.381,42.029-112.132,94.123
		H177.408z M391.204,451.111c-55.579,0-100.796-45.264-100.796-100.898s45.217-100.898,100.796-100.898S492,294.577,492,350.212
		S446.783,451.111,391.204,451.111L391.204,451.111z"/>
</g>
</svg>
