<?xml version="1.0" encoding="utf-8"?>
<!-- Generator: Adobe Illustrator 16.0.0, SVG Export Plug-In . SVG Version: 6.00 Build 0)  -->
<!DOCTYPE svg PUBLIC "-//W3C//DTD SVG 1.0//EN" "http://www.w3.org/TR/2001/REC-SVG-20010904/DTD/svg10.dtd">
<svg version="1.0" id="Capa_1" xmlns="http://www.w3.org/2000/svg" xmlns:xlink="http://www.w3.org/1999/xlink" x="0px" y="0px"
	 width="512px" height="512px" viewBox="0 0 512 512" enable-background="new 0 0 512 512" xml:space="preserve">
<g>
	<g>
		<path fill="#39B039" d="M124.55,257.007c0,27.86,11.29,53.08,29.55,71.33c18.26,18.261,43.48,29.55,71.33,29.55H108.38
			c-27.86,0-53.08-11.289-71.34-29.55c-18.25-18.25-29.54-43.47-29.54-71.33c0-53.31,41.36-96.96,93.74-100.62
			c18.23-68.41,80.61-118.82,154.76-118.82c20.66,0,40.4,3.91,58.53,11.04c-46.95,18.44-83.08,58.43-96.23,107.78
			C165.91,160.047,124.55,203.697,124.55,257.007L124.55,257.007z"/>
		<path fill="#F9F6F9" d="M331.428,314.32H313.91V198.44c0-18.805-15.245-34.05-34.051-34.05h-47.718
			c-18.805,0-34.05,15.245-34.05,34.05v115.88h-17.518c-30.385,0-46.844,35.574-27.174,58.734l75.428,88.806
			c14.238,16.764,40.11,16.764,54.348,0l75.429-88.806C378.272,349.895,361.813,314.32,331.428,314.32L331.428,314.32z"/>
		<path fill="#39B039" d="M277.277,467.403c-14.68,10.95-36.009,9.109-48.449-5.54l-75.43-88.811
			c-19.67-23.16-3.21-58.729,27.17-58.729h17.52V198.436c0-18.8,15.24-34.05,34.05-34.05h42.57c-18.81,0-34.05,15.25-34.05,34.05
			v115.887h-17.52c-30.39,0-46.85,35.569-27.18,58.729l75.431,88.811C273.178,463.973,275.158,465.823,277.277,467.403z"/>
	</g>
	<path d="M488.321,227.365c-15.278-15.267-35.581-23.675-57.171-23.675h-7.601c0.073-2.005,0.109-3.995,0.109-5.96
		c0-92.448-75.212-167.66-167.66-167.66c-46.165,0-90.754,19.333-122.333,53.042c-2.832,3.023-2.677,7.769,0.346,10.601
		c3.022,2.832,7.769,2.677,10.601-0.346C173.791,62.222,213.349,45.07,256,45.07c84.177,0,152.66,68.483,152.66,152.66
		c0,4.185-0.185,8.504-0.544,12.837c-0.175,2.09,0.534,4.158,1.954,5.701c1.421,1.544,3.422,2.422,5.52,2.422h15.562
		c17.585,0,34.123,6.849,46.563,19.281C490.15,250.417,497,266.955,497,284.54c0,36.31-29.54,65.851-65.85,65.851h-56.52
		c0.044-6.246-1.272-12.558-4.041-18.541c-7.144-15.438-22.147-25.029-39.16-25.029h-10.02V198.44
		c0-22.911-18.639-41.55-41.551-41.55H232.14c-22.911,0-41.55,18.639-41.55,41.55v108.38h-10.02
		c-17.011,0-32.017,9.591-39.16,25.029c-2.768,5.982-4.085,12.295-4.041,18.541H108.38c-24.946,0-48.398-9.715-66.037-27.354
		C24.711,305.404,15,281.955,15,257.01c0-48.827,38.111-89.739,86.763-93.138c3.196-0.223,5.897-2.452,6.724-5.548
		c3.996-14.976,10.251-29.229,18.594-42.362c2.221-3.496,1.187-8.131-2.309-10.352c-3.496-2.22-8.131-1.187-10.352,2.309
		c-8.222,12.942-14.599,26.876-18.993,41.489c-25.287,3.011-48.619,14.801-66.173,33.547C10.389,203.099,0,229.399,0,257.01
		c0,28.952,11.271,56.168,31.737,76.633c20.472,20.473,47.691,31.748,76.643,31.748h31.854c1.726,4.459,4.203,8.692,7.449,12.515
		l75.429,88.809c8.21,9.67,20.197,15.216,32.888,15.216c12.689,0,24.677-5.546,32.887-15.216l18.83-22.18
		c2.682-3.158,2.294-7.892-0.864-10.572c-3.157-2.681-7.891-2.294-10.571,0.864l-18.829,22.18
		c-5.354,6.308-13.173,9.924-21.452,9.924c-8.279,0-16.098-3.616-21.454-9.925l-75.43-88.81c-7.294-8.59-8.824-19.821-4.093-30.047
		c4.731-10.225,14.281-16.328,25.547-16.328h17.52c4.142,0,7.5-3.358,7.5-7.5V198.44c0-14.64,11.91-26.55,26.55-26.55h47.719
		c14.641,0,26.551,11.91,26.551,26.55v115.88c0,4.142,3.356,7.5,7.5,7.5h17.52c11.267,0,20.815,6.104,25.547,16.328
		c4.731,10.226,3.201,21.459-4.093,30.047l-37.18,43.77c-2.683,3.157-2.297,7.891,0.86,10.572c3.155,2.682,7.89,2.296,10.57-0.861
		l37.182-43.771c3.245-3.822,5.723-8.058,7.448-12.515h59.386c44.581,0,80.85-36.27,80.85-80.851
		C512,262.951,503.592,242.647,488.321,227.365L488.321,227.365z"/>
</g>
</svg>
