<?xml version="1.0" encoding="utf-8"?>
<!-- Generator: Adobe Illustrator 16.0.0, SVG Export Plug-In . SVG Version: 6.00 Build 0)  -->
<!DOCTYPE svg PUBLIC "-//W3C//DTD SVG 1.0//EN" "http://www.w3.org/TR/2001/REC-SVG-20010904/DTD/svg10.dtd">
<svg version="1.0" id="Isolation_Mode" xmlns="http://www.w3.org/2000/svg" xmlns:xlink="http://www.w3.org/1999/xlink" x="0px"
	 y="0px" width="443.5px" height="235px" viewBox="30.5 138.5 443.5 235" enable-background="new 30.5 138.5 443.5 235"
	 xml:space="preserve">
<g id="Analysis-report-document-develop-infromation" display="none">
	<path display="inline" fill="#FFFFFF" d="M488,112v360c-0.026,8.825-7.175,15.974-16,16H200c-8.826-0.026-15.974-7.175-16-16V40
		c0.026-8.826,7.174-15.974,16-16h200v72c0.026,8.826,7.175,15.974,16,16H488z"/>
	<path display="inline" fill="#39B039" d="M488,112v360c-0.026,8.825-7.175,15.974-16,16h-32c8.825-0.026,15.974-7.175,16-16V112
		H488z"/>
	<path display="inline" fill="#FFFFFF" d="M488,112h-72c-8.825-0.026-15.974-7.174-16-16V24L488,112z"/>
	<circle display="inline" fill="#39B039" cx="392" cy="392" r="64"/>
	<path display="inline" fill="#FFFFFF" d="M376,224H216V64c88.339-0.026,159.974,71.565,160,159.904
		C376,223.936,376,223.968,376,224z"/>
	<path display="inline" fill="#39B039" d="M376,224h-32c0.016-76.043-53.493-141.591-128-156.8V64
		c88.339-0.026,159.974,71.565,160,159.904C376,223.936,376,223.968,376,224z"/>
	<path display="inline" fill="#39B039" d="M184,256h160c-0.019,88.365-71.668,159.984-160.034,159.966
		c-42.415-0.009-83.09-16.857-113.086-46.846L184,256z"/>
	<path display="inline" fill="#FFFFFF" d="M184,96v160L70.88,369.12c-62.474-62.493-62.459-163.8,0.034-226.274
		C100.91,112.859,141.585,96.009,184,96z"/>
	<path display="inline" d="M493.68,106.32l-88-88c-1.524-1.473-3.559-2.304-5.68-2.32H200c-13.238,0.04-23.96,10.762-24,24v48.4
		C83.437,92.738,11.917,171.292,16.255,263.855C20.309,350.346,89.51,419.546,176,423.6V472c0.04,13.238,10.762,23.961,24,24h272
		c13.238-0.039,23.961-10.762,24-24V112C495.984,109.879,495.153,107.846,493.68,106.32z M408,43.28L468.72,104H416
		c-4.418,0-8-3.582-8-8V43.28z M32,256c0.108-80.79,63.327-147.416,144-151.76v148.48L71.2,357.52
		C45.972,329.727,31.998,293.535,32,256L32,256z M82.48,368.8L187.28,264h148.48c-4.253,83.676-75.533,148.061-159.21,143.807
		C141.636,406.032,108.405,392.253,82.48,368.8L82.48,368.8z M480,472c0,4.418-3.582,8-8,8H200c-4.418,0-8-3.582-8-8v-48.4
		c89.466-4.32,159.832-78.029,160-167.6c0-4.418-3.582-8-8-8H192V40c0-4.418,3.582-8,8-8h192v64c0.039,13.238,10.762,23.96,24,24h64
		V472z"/>
	<path display="inline" d="M216,56c-4.418,0-8,3.582-8,8v160c0,4.418,3.582,8,8,8h160c4.418,0,8-3.582,8-8
		C383.898,131.258,308.742,56.102,216,56z M224,216V72.24c77.605,4.167,139.593,66.155,143.76,143.76H224z"/>
	<path display="inline" d="M392,320c-39.765,0-72,32.234-72,72c0,39.765,32.235,72,72,72s72-32.235,72-72
		C463.938,352.262,431.739,320.063,392,320z M392,448c-30.928,0-56-25.072-56-56s25.072-56,56-56s56,25.072,56,56
		C447.965,422.913,422.913,447.965,392,448z"/>
	<path display="inline" d="M376,404.688l-18.344-18.344l-11.313,11.313l24,24c3.124,3.123,8.188,3.123,11.313,0l48-48
		l-11.313-11.313L376,404.688z"/>
	<path display="inline" d="M400,152h64v16h-64V152z"/>
	<path display="inline" d="M400,200h64v16h-64V200z"/>
	<path display="inline" d="M400,248h64v16h-64V248z"/>
</g>
<path fill="#39B039" d="M255.997,148.909c92.938,0,170.186,57.328,206.317,94.047c7.136,7.247,7.136,18.832,0,26.087
	c-36.133,36.721-113.379,94.049-206.317,94.049c-92.94,0-170.186-57.328-206.318-94.049c-7.127-7.255-7.127-18.84,0-26.087
	C85.811,206.236,163.057,148.909,255.997,148.909z"/>
<circle fill="#FFFFFF" cx="256" cy="256" r="107.085"/>
<path opacity="0.1" fill="#39B039" enable-background="new    " d="M220.437,156.628c-30.977,18.769-51.682,52.792-51.682,91.658
	c0,59.141,47.947,107.084,107.089,107.084c25.547,0,48.999-8.949,67.401-23.877C180.468,371.016,168.759,214.829,220.437,156.628z"
	/>
<circle fill="#39B039" cx="256.002" cy="256" r="52.459"/>
<path fill="#FFFFFF" d="M256,231.222c13.675,0,24.781,11.091,24.781,24.776c0,13.686-11.105,24.779-24.781,24.779
	c-13.693,0-24.781-11.096-24.781-24.779C231.219,242.313,242.307,231.222,256,231.222z"/>
<path opacity="0.15" fill="#39B039" enable-background="new    " d="M53.455,301.145c35.94-22.191,116.196-68.373,202.545-68.373
	c86.35,0,166.602,46.181,202.545,68.373C420.992,264.407,345.824,210.856,256,210.856
	C166.172,210.856,91.009,264.407,53.455,301.145z"/>
<g opacity="0.1">
	<path fill="#39B039" d="M322.429,311.354c-1.414,0-2.845-0.459-4.02-1.431l-7.57-6.157c-2.732-2.223-3.151-6.25-0.929-8.983
		c2.23-2.741,6.251-3.15,8.993-0.929l7.562,6.156c2.742,2.231,3.15,6.251,0.929,8.993
		C326.124,310.555,324.285,311.354,322.429,311.354z"/>
	<path fill="#39B039" d="M337.791,282.52c-0.613,0-1.243-0.084-1.856-0.271l-9.333-2.844c-3.373-1.03-5.279-4.6-4.25-7.971
		c1.03-3.382,4.6-5.281,7.979-4.259l9.324,2.845c3.381,1.039,5.271,4.599,4.25,7.979C343.07,280.748,340.533,282.52,337.791,282.52z
		"/>
	<path fill="#39B039" d="M248.704,342.352c-0.2,0-0.396-0.009-0.596-0.033c-3.513-0.324-6.097-3.433-5.774-6.949l0.898-9.708
		c0.324-3.509,3.436-6.097,6.949-5.772c3.513,0.322,6.097,3.439,5.773,6.948l-0.898,9.708
		C254.75,339.864,251.965,342.352,248.704,342.352z"/>
	<path fill="#39B039" d="M174.205,278.841c-2.849,0-5.446-1.916-6.187-4.803c-0.873-3.415,1.184-6.897,4.603-7.767l9.452-2.428
		c3.415-0.877,6.898,1.184,7.771,4.6c0.877,3.414-1.184,6.896-4.599,7.773l-9.453,2.419
		C175.265,278.781,174.728,278.841,174.205,278.841z"/>
	<path fill="#39B039" d="M216.468,194.081c-2.125,0-4.198-1.061-5.416-2.989l-5.194-8.256c-1.878-2.989-0.979-6.932,2.005-8.81
		c2.985-1.877,6.932-0.983,8.81,2.005l5.194,8.256c1.882,2.989,0.983,6.932-2.005,8.809
		C218.805,193.761,217.63,194.081,216.468,194.081z"/>
	<path fill="#39B039" d="M291.338,191.074c-0.996,0-2.01-0.234-2.955-0.728c-3.125-1.635-4.343-5.493-2.708-8.618l4.521-8.648
		c1.628-3.129,5.494-4.334,8.619-2.708c3.125,1.635,4.334,5.497,2.699,8.623L297,187.642
		C295.859,189.823,293.646,191.074,291.338,191.074z"/>
</g>
<path d="M466.866,238.472c-2.121-2.159-4.344-4.352-6.617-6.514c-2.555-2.436-6.6-2.342-9.035,0.213
	c-2.435,2.555-2.333,6.595,0.222,9.031c2.163,2.074,4.292,4.168,6.327,6.233c4.642,4.722,4.642,12.403,0,17.129
	c-12.979,13.182-40.662,38.475-80.312,59.627c-17.518,9.358-35.119,16.707-52.721,22.039c27.174-20.762,44.75-53.479,44.75-90.233
	c0-36.681-17.509-69.347-44.589-90.104c46.129,14.038,82.978,39.01,104.41,56.072c2.76,2.193,6.779,1.737,8.977-1.022
	c2.206-2.759,1.746-6.778-1.014-8.976c-32.599-25.935-99.479-69.445-181.265-69.445c-42.314,0-85.199,11.441-127.471,34.007
	c-41.139,21.962-69.91,48.237-83.398,61.947c-9.508,9.661-9.508,25.381,0,35.047c8.209,8.345,21.907,21.17,40.556,34.879
	c1.137,0.844,2.465,1.244,3.776,1.244c1.963,0,3.9-0.902,5.152-2.599c2.09-2.844,1.481-6.838-1.358-8.934
	c-17.972-13.214-31.137-25.546-39.023-33.55c-4.646-4.724-4.646-12.403,0-17.125c12.978-13.191,40.671-38.478,80.311-59.64
	c17.517-9.35,35.123-16.699,52.721-22.026c-27.173,20.749-44.741,53.47-44.741,90.224c0,36.661,17.479,69.31,44.537,90.071
	c-23.41-7.103-46.772-17.688-69.437-31.568c-3.01-1.84-6.94-0.895-8.784,2.111c-1.843,3.016-0.898,6.949,2.112,8.789
	c47.083,28.834,97.24,44.078,145.047,44.078c42.307,0,85.2-11.445,127.462-34.013c41.148-21.954,69.914-48.233,83.403-61.942
	C476.378,263.857,476.378,248.138,466.866,238.472z M155.303,255.998c0-55.526,45.171-100.698,100.698-100.698
	c55.522,0,100.698,45.171,100.698,100.698c0,55.521-45.176,100.697-100.698,100.697C200.474,356.695,155.303,311.52,155.303,255.998
	z M338.594,227.934c0-17.185-13.974-31.163-31.158-31.163c-8.312,0-15.855,3.274-21.459,8.588
	c-9.045-5.386-19.297-8.213-29.976-8.213c-32.449,0-58.852,26.398-58.852,58.847c0,32.448,26.403,58.849,58.852,58.849
	c31.712,0,57.634-25.207,58.792-56.635C328.435,254.891,338.594,242.577,338.594,227.934z M256,302.068
	c-25.407,0-46.074-20.66-46.074-46.071c0-25.406,20.667-46.074,46.074-46.074c8.057,0,15.805,2.048,22.693,5.965
	c-1.558,3.708-2.426,7.779-2.426,12.045c0,15.328,11.129,28.098,25.733,30.676C300.641,282.805,280.525,302.068,256,302.068z
	 M307.436,246.319c-10.143,0-18.395-8.247-18.395-18.385c0-10.138,8.252-18.385,18.395-18.385c10.134,0,18.378,8.248,18.378,18.385
	C325.813,238.072,317.568,246.319,307.436,246.319z"/>
</svg>
